# xmcd CD database file
#
# Track frame offsets:
#	150
#	13653
#	26685
#	37495
#	49543
#	63706
#	78810
#	92746
#	107076
#	119477
#	131664
#	143639
#	158204
#	171803
#	184837
#	198080
#	211970
#	226254
#	237981
#	249836
#	261301
#	276407
#	289833
#	305206
#	318456
#	331432
#
# Disc length: 4576 seconds
#
# Revision: 0
# Processed by: cddbd v1.5.2PL0 Copyright (c) Steve Scherf et al.
# Submitted via: CDex 1.51
#
DISCID=8311de1a
DTITLE=George Shearing - Early Years (JSP)  CD A
DYEAR=1900
DGENRE=Jazz
TTITLE0=01-How Come You Do Me Like You Do?
TTITLE1=02-Stomp in F
TTITLE2=03-Blue Boogie
TTITLE3=04-Squeezin the Blues
TTITLE4=05-Small Town
TTITLE5=06-We Speak of You Often
TTITLE6=07-What Do You Know about Love?
TTITLE7=08-Talk to Me
TTITLE8=09-Amoresque
TTITLE9=10-I Got Rhythm
TTITLE10=11-I Never Knew
TTITLE11=12-After You've Gone
TTITLE12=13-Stephane's Tune
TTITLE13=14-I Found a New Baby
TTITLE14=15-Black Eyes
TTITLE15=16-Boog It
TTITLE16=17-Softly as in a Morning Sunrise
TTITLE17=18-I Never Knew
TTITLE18=19-Sweet Sue
TTITLE19=20-Tiger Rag
TTITLE20=21-Stephane's Blues
TTITLE21=22-Noel Brings the Swing
TTITLE22=23-Southern Fried
TTITLE23=24-Missouri Scrambler
TTITLE24=25-Wednesday Night Hop
TTITLE25=26-Overnight Hop
EXTD=
EXTT0=
EXTT1=
EXTT2=
EXTT3=
EXTT4=
EXTT5=
EXTT6=
EXTT7=
EXTT8=
EXTT9=
EXTT10=
EXTT11=
EXTT12=
EXTT13=
EXTT14=
EXTT15=
EXTT16=
EXTT17=
EXTT18=
EXTT19=
EXTT20=
EXTT21=
EXTT22=
EXTT23=
EXTT24=
EXTT25=
PLAYORDER=
